<?xml version="1.0" encoding="UTF-8" standalone="no"?>
<svg
   xmlns:dc="http://purl.org/dc/elements/1.1/"
   xmlns:cc="http://creativecommons.org/ns#"
   xmlns:rdf="http://www.w3.org/1999/02/22-rdf-syntax-ns#"
   xmlns:svg="http://www.w3.org/2000/svg"
   xmlns="http://www.w3.org/2000/svg"
   xmlns:xlink="http://www.w3.org/1999/xlink"
   xmlns:sodipodi="http://sodipodi.sourceforge.net/DTD/sodipodi-0.dtd"
   xmlns:inkscape="http://www.inkscape.org/namespaces/inkscape"
   viewBox="0 0 30 30"
   version="1.1"
   id="svg3792"
   sodipodi:docname="logo.svg"
   inkscape:version="0.92.4 (f8dce91, 2019-08-02)"
   width="30"
   height="30">
  <metadata
     id="metadata3798">
    <rdf:RDF>
      <cc:Work
         rdf:about="">
        <dc:format>image/svg+xml</dc:format>
        <dc:type
           rdf:resource="http://purl.org/dc/dcmitype/StillImage" />
        <dc:title></dc:title>
      </cc:Work>
    </rdf:RDF>
  </metadata>
  <defs
     id="defs3796">
    <linearGradient
       inkscape:collect="always"
       id="linearGradient4630">
      <stop
         style="stop-color:#800080;stop-opacity:1;"
         offset="0"
         id="stop4626" />
      <stop
         style="stop-color:#4f5154;stop-opacity:1"
         offset="1"
         id="stop4628" />
    </linearGradient>
    <linearGradient
       inkscape:collect="always"
       xlink:href="#linearGradient4630"
       id="linearGradient4632"
       x1="5.4477611"
       y1="14.850746"
       x2="29.925373"
       y2="15"
       gradientUnits="userSpaceOnUse" />
  </defs>
  <sodipodi:namedview
     pagecolor="#ffffff"
     bordercolor="#666666"
     borderopacity="1"
     objecttolerance="10"
     gridtolerance="10"
     guidetolerance="10"
     inkscape:pageopacity="0"
     inkscape:pageshadow="2"
     inkscape:window-width="1313"
     inkscape:window-height="713"
     id="namedview3794"
     showgrid="false"
     inkscape:zoom="6.7000001"
     inkscape:cx="14.334044"
     inkscape:cy="32.485743"
     inkscape:window-x="53"
     inkscape:window-y="27"
     inkscape:window-maximized="1"
     inkscape:current-layer="svg3792" />
  <rect
     style="opacity:0.98000004;fill:url(#linearGradient4632);fill-opacity:1"
     id="rect98"
     width="30"
     height="30"
     x="-0.074626863"
     y="4.2616375e-07"
     ry="11.268657" />
  <path
     d="M 7,7 C 7,5.9 7.9,5 9,5 h 12 a 2,2 0 0 1 2,2 v 16 a 2,2 0 0 1 -2,2 H 9 A 2,2 0 0 1 7,23 Z m 3,1 v 2 H 20 V 8 Z m 0,4 v 2 h 2 v -2 z m 4,0 v 2 h 2 v -2 z m 4,0 v 2 h 2 v -2 z m -8,4 v 2 h 2 v -2 z m 4,0 v 2 h 2 v -2 z m 4,0 v 6 h 2 v -6 z m -8,4 v 2 h 2 v -2 z m 4,0 v 2 h 2 v -2 z"
     id="path3790"
     inkscape:connector-curvature="0"
     style="opacity:1;fill-opacity:1;fill:#ffffff" />
</svg>
