<?xml version="1.0" standalone="no"?>
<!DOCTYPE svg PUBLIC "-//W3C//DTD SVG 20010904//EN"
 "http://www.w3.org/TR/2001/REC-SVG-20010904/DTD/svg10.dtd">
<svg version="1.0" xmlns="http://www.w3.org/2000/svg"
 width="700.000000pt" height="700.000000pt" viewBox="0 0 700.000000 700.000000"
 preserveAspectRatio="xMidYMid meet">
<metadata>
Created by potrace 1.11, written by Peter Selinger 2001-2013
</metadata>
<g transform="translate(0.000000,700.000000) scale(0.100000,-0.100000)"
fill="#000000" stroke="none">
<path d="M2429 6996 c-2 -2 -35 -6 -74 -10 -38 -3 -80 -8 -92 -10 -12 -3 -48
-7 -79 -11 -32 -3 -60 -8 -63 -10 -3 -1 -22 -6 -41 -9 -107 -17 -320 -81 -467
-142 -132 -54 -392 -188 -413 -213 -3 -3 -16 -12 -30 -19 -24 -12 -132 -91
-215 -157 -21 -16 -63 -53 -94 -81 -31 -29 -73 -68 -95 -87 -21 -20 -35 -40
-32 -46 4 -6 1 -9 -6 -6 -24 8 -236 -256 -357 -443 -27 -41 -169 -320 -188
-367 -6 -16 -18 -47 -27 -68 -8 -20 -16 -41 -17 -45 -1 -4 -6 -18 -11 -32 -16
-42 -76 -253 -82 -290 -3 -19 -8 -46 -11 -60 -34 -150 -34 -182 -34 -1390 0
-710 4 -1219 10 -1255 5 -33 11 -71 13 -85 48 -297 193 -668 369 -942 41 -64
80 -122 86 -130 5 -7 46 -58 90 -113 106 -134 258 -287 386 -388 33 -27 67
-54 77 -62 67 -55 412 -265 434 -265 2 0 37 -15 76 -33 93 -43 339 -130 398
-141 8 -2 26 -6 40 -9 14 -4 36 -9 50 -12 14 -2 48 -9 75 -15 78 -16 97 -19
150 -26 28 -3 82 -9 120 -14 85 -10 2211 -6 2275 4 61 10 208 35 245 42 118
21 344 92 485 152 106 45 294 141 298 153 2 5 9 9 16 9 18 0 251 158 302 205
6 6 30 26 54 45 58 46 236 221 291 286 150 175 251 326 356 529 48 94 153 349
153 372 0 7 4 21 10 31 9 16 43 136 55 197 26 124 44 233 50 301 4 43 9 93 11
109 2 17 5 473 5 1015 2 872 -3 1155 -17 1225 -3 11 -7 40 -10 65 -14 125 -61
330 -104 445 -10 28 -24 68 -31 90 -22 74 -157 360 -201 425 -13 19 -29 47
-37 63 -8 15 -18 27 -23 27 -4 0 -8 5 -8 11 0 9 -42 75 -72 114 -150 194 -351
402 -494 510 -43 33 -80 63 -82 68 -2 4 -10 7 -17 7 -7 0 -15 4 -17 9 -14 39
-511 302 -593 315 -5 1 -14 4 -20 7 -56 34 -400 118 -545 135 -30 3 -82 9
-115 14 -56 8 -2158 13 -2166 6z"/>
</g>
</svg>
